<svg xmlns="http://www.w3.org/2000/svg" version="1.1" width="214.30942" height="168.20358" viewBox="0 0 56.702701 44.503865" id="svg5" inkscape:version="1.2.2 (b0a8486541, 2022-12-01)" sodipodi:docname="Zeichnung.svg" xmlns:inkscape="http://www.inkscape.org/namespaces/inkscape" xmlns:sodipodi="http://sodipodi.sourceforge.net/DTD/sodipodi-0.dtd" xmlns:svg="http://www.w3.org/2000/svg"><metadata><rdf:RDF xmlns:rdf="http://www.w3.org/1999/02/22-rdf-syntax-ns#" xmlns:dc="http://purl.org/dc/elements/1.1/"><rdf:Description><dc:creator>RealFaviconGenerator</dc:creator><dc:source>https://realfavicongenerator.net</dc:source></rdf:Description></rdf:RDF></metadata><sodipodi:namedview id="namedview7" pagecolor="#ffffff" bordercolor="#000000" borderopacity="0.25" inkscape:showpageshadow="2" inkscape:pageopacity="0.0" inkscape:pagecheckerboard="0" inkscape:deskcolor="#d1d1d1" inkscape:document-units="mm" showgrid="false" inkscape:zoom="2.4865144" inkscape:cx="27.146434" inkscape:cy="78.020862" inkscape:window-width="1920" inkscape:window-height="1008" inkscape:window-x="0" inkscape:window-y="0" inkscape:window-maximized="1" inkscape:current-layer="layer1"></sodipodi:namedview><defs id="defs2">
    <inkscape:path-effect effect="fillet_chamfer" id="path-effect3385" is_visible="true" lpeversion="1" nodesatellites_param="F,0,0,1,0,2.9104167,0,1 @ F,0,0,1,0,2.9104167,0,1 @ F,0,0,1,0,2.9104167,0,1 @ F,0,0,1,0,2.9104167,0,1 @ F,0,0,1,0,2.9104167,0,1" unit="px" method="auto" mode="F" radius="11" chamfer_steps="1" flexible="false" use_knot_distance="true" apply_no_radius="true" apply_with_radius="true" only_selected="false" hide_knots="false"></inkscape:path-effect>
    <inkscape:path-effect effect="fillet_chamfer" id="path-effect3381" is_visible="true" lpeversion="1" nodesatellites_param="F,0,0,1,0,2.9104167,0,1 @ F,0,0,1,0,2.9104167,0,1 @ F,0,0,1,0,2.9104167,0,1 @ F,0,0,1,0,2.9104167,0,1" unit="px" method="auto" mode="F" radius="11" chamfer_steps="1" flexible="false" use_knot_distance="true" apply_no_radius="true" apply_with_radius="true" only_selected="false" hide_knots="false"></inkscape:path-effect>
    <inkscape:path-effect effect="fillet_chamfer" id="path-effect3377" is_visible="true" lpeversion="1" nodesatellites_param="F,0,0,1,0,2.9104167,0,1 @ F,0,0,1,0,2.9104167,0,1 @ F,0,0,1,0,2.9104167,0,1 @ F,0,0,1,0,2.9104167,0,1" unit="px" method="auto" mode="F" radius="11" chamfer_steps="1" flexible="false" use_knot_distance="true" apply_no_radius="true" apply_with_radius="true" only_selected="false" hide_knots="false"></inkscape:path-effect>
    <linearGradient id="linearGradient1187" inkscape:swatch="solid">
      <stop style="stop-color:#000000;stop-opacity:1;" offset="0" id="stop1185"></stop>
    </linearGradient>
    <inkscape:path-effect effect="fillet_chamfer" id="path-effect446" is_visible="true" lpeversion="1" nodesatellites_param="F,0,0,1,0,2.9104167,0,1 @ F,0,0,1,0,2.9104167,0,1 @ F,0,0,1,0,2.9104167,0,1 @ F,0,0,1,0,2.9104167,0,1" unit="px" method="auto" mode="F" radius="11" chamfer_steps="1" flexible="false" use_knot_distance="true" apply_no_radius="true" apply_with_radius="true" only_selected="false" hide_knots="false"></inkscape:path-effect>
    <inkscape:path-effect effect="fillet_chamfer" id="path-effect443" is_visible="true" lpeversion="1" nodesatellites_param="F,0,0,1,0,0,0,1 @ F,0,0,1,0,0,0,1 @ F,0,0,1,0,0,0,1 @ F,0,0,1,0,0,0,1" unit="px" method="auto" mode="F" radius="11" chamfer_steps="1" flexible="false" use_knot_distance="true" apply_no_radius="true" apply_with_radius="true" only_selected="false" hide_knots="false"></inkscape:path-effect>
    <inkscape:path-effect effect="fillet_chamfer" id="path-effect441" is_visible="true" lpeversion="1" nodesatellites_param="F,0,0,1,0,2.9104167,0,1 @ F,0,0,1,0,2.9104167,0,1 @ F,0,0,1,0,2.9104167,0,1 @ F,0,0,1,0,2.9104167,0,1 @ F,0,0,1,0,2.9104167,0,1" unit="px" method="auto" mode="F" radius="11" chamfer_steps="1" flexible="false" use_knot_distance="true" apply_no_radius="true" apply_with_radius="true" only_selected="false" hide_knots="false"></inkscape:path-effect>
    <inkscape:path-effect effect="fillet_chamfer" id="path-effect439" is_visible="true" lpeversion="1" nodesatellites_param="F,0,0,1,0,2.9104167,0,1 @ F,0,0,1,0,2.9104167,0,1 @ F,0,0,1,0,2.9104167,0,1 @ F,0,0,1,0,2.9104167,0,1" unit="px" method="auto" mode="F" radius="11" chamfer_steps="1" flexible="false" use_knot_distance="true" apply_no_radius="true" apply_with_radius="true" only_selected="false" hide_knots="false"></inkscape:path-effect>
  </defs><g inkscape:label="Ebene 1" inkscape:groupmode="layer" id="layer1" transform="translate(-8.6959147,-14.800289)">
    <g id="g9928" transform="translate(2.0460849,4.3595042)">
      <path id="rect111" style="fill:#ffb568;fill-opacity:1;stroke-width:0.31161" d="m 13.398101,14.43174 10.720006,0 a 2.9104167,2.9104167 45 0 1 2.910417,2.910417 v 33.772472 a 2.9104167,2.9104167 135 0 1 -2.910417,2.910417 H 13.398101 a 2.9104167,2.9104167 45 0 1 -2.910417,-2.910417 l 0,-33.772472 a 2.9104167,2.9104167 135 0 1 2.910417,-2.910417 z" sodipodi:nodetypes="ccccc" inkscape:original-d="m 10.487684,14.43174 h 16.54084 v 39.593306 h -16.54084 z" inkscape:path-effect="#path-effect439"></path>
      <path id="rect227" d="M 49.191344,14.340912 H 59.91135 a 2.9104167,2.9104167 45 0 1 2.910417,2.910417 V 51.023812 A 2.9104167,2.9104167 135 0 1 59.91135,53.934229 H 49.191344 a 2.9104167,2.9104167 45 0 1 -2.910417,-2.910417 l 0,-33.772483 a 2.9104167,2.9104167 135 0 1 2.910417,-2.910417 z" style="fill:#ffb08a;fill-opacity:1;stroke-width:0.31161" inkscape:original-d="m 46.280927,14.340912 h 16.54084 v 39.593317 h -16.54084 z" inkscape:path-effect="#path-effect446"></path>
      <path id="rect278" style="fill:#ffbc8a;fill-opacity:1;stroke-width:0.245214" d="m 30.591015,30.970751 4.073959,3.615184 a 3.2178865,3.2178865 179.45772 0 0 4.316833,-0.04086 l 3.833201,-3.533466 a 1.2754624,1.2754624 23.664978 0 1 2.139939,0.937808 v 18.69747 A 2.9104167,2.9104167 135 0 1 42.04453,53.557305 H 31.324538 a 2.9104167,2.9104167 45 0 1 -2.910417,-2.910417 v -18.69747 a 1.3084366,1.3084366 155.79274 0 1 2.176894,-0.978667 z" sodipodi:nodetypes="cccccc" inkscape:original-d="m 28.414121,29.039001 8.427747,7.478684 8.113079,-7.478684 V 53.557305 H 28.414121 Z" inkscape:path-effect="#path-effect441"></path>
      <path id="path3369" style="fill:#ff8500;fill-opacity:1;stroke-width:0.31161" d="M 10.079813,11.430107 H 20.79982 a 2.9104167,2.9104167 45 0 1 2.910417,2.910417 V 48.113005 A 2.9104167,2.9104167 135 0 1 20.79982,51.023422 H 10.079813 A 2.9104167,2.9104167 45 0 1 7.1693966,48.113005 l 0,-33.772481 a 2.9104167,2.9104167 135 0 1 2.9104164,-2.910417 z" sodipodi:nodetypes="ccccc" inkscape:original-d="M 7.1693966,11.430107 H 23.710237 V 51.023422 H 7.1693966 Z" inkscape:path-effect="#path-effect3377"></path>
      <path id="path3371" d="M 45.873074,11.339279 H 56.59308 a 2.9104167,2.9104167 45 0 1 2.910417,2.910417 V 48.022177 A 2.9104167,2.9104167 135 0 1 56.59308,50.932594 H 45.873074 a 2.9104167,2.9104167 45 0 1 -2.910417,-2.910417 l 0,-33.772481 a 2.9104167,2.9104167 135 0 1 2.910417,-2.910417 z" style="fill:#ff5400;fill-opacity:1;stroke-width:0.31161" inkscape:original-d="m 42.962657,11.339279 h 16.54084 v 39.593315 h -16.54084 z" inkscape:path-effect="#path-effect3381"></path>
      <path id="path3373" style="fill:#ff6d00;fill-opacity:1;stroke-width:0.246959" d="m 27.259064,27.955071 4.101287,3.691409 a 3.1725899,3.1725899 179.45703 0 0 4.289171,-0.04065 l 3.861212,-3.610113 a 1.263218,1.263218 23.462453 0 1 2.125941,0.92273 v 19.047616 a 2.9104167,2.9104167 135 0 1 -2.910417,2.910417 l -10.720007,0 A 2.9104167,2.9104167 45 0 1 25.095834,47.966065 V 28.918449 a 1.2961313,1.2961313 155.99457 0 1 2.16323,-0.963378 z" sodipodi:nodetypes="cccccc" inkscape:original-d="m 25.095834,26.008032 8.427747,7.585487 8.113094,-7.585487 v 24.86845 H 25.095834 Z" inkscape:path-effect="#path-effect3385"></path>
    </g>
  </g></svg>